//  ***** gm - Piano 2 *****
//  Soundfont converted using sfZed
//  SoundFont version 2.1
//  E-mu 10K1
//  Using Virtual Sampler


<group>
loop_mode=loop_continuous
ampeg_release=0.250

<region>
sample=PIANOA3.wav
lokey=101
loop_start=4686
loop_end=4840
tune=3
pitch_keycenter=103
volume=-20.800

<region>
sample=PIANOA3.wav
lokey=101
loop_start=4686
loop_end=4840
tune=3
pitch_keycenter=103
volume=-20.800

<region>
sample=PIANO36.wav
hikey=41
loop_start=11989
loop_end=13670
tune=-4
pitch_keycenter=36
volume=-23.300

<region>
sample=PIANO36.wav
hikey=41
loop_start=11989
loop_end=13670
tune=-4
pitch_keycenter=36
volume=-23.300

<region>
sample=PIANO41.wav
lokey=42
hikey=46
loop_start=10830
loop_end=13101
tune=-1
pitch_keycenter=41
volume=-22.200

<region>
sample=PIANO41.wav
lokey=42
hikey=46
loop_start=10830
loop_end=13101
tune=-1
pitch_keycenter=41
volume=-22.200

<region>
sample=PIANO48.wav
lokey=47
hikey=53
loop_start=9313
loop_end=11166
pitch_keycenter=48
volume=-23.300

<region>
sample=PIANO48.wav
lokey=47
hikey=53
loop_start=9313
loop_end=11166
pitch_keycenter=48
volume=-23.300

<region>
sample=PIANO56.wav
lokey=54
hikey=62
loop_start=8309
loop_end=9795
pitch_keycenter=56
volume=-22.500

<region>
sample=PIANO56.wav
lokey=54
hikey=62
loop_start=8309
loop_end=9795
pitch_keycenter=56
volume=-22.500

<region>
sample=PIANO64.wav
lokey=63
hikey=70
loop_start=9176
loop_end=10514
tune=1
pitch_keycenter=64
volume=-22.500

<region>
sample=PIANO64.wav
lokey=63
hikey=70
loop_start=9176
loop_end=10514
tune=1
pitch_keycenter=64
volume=-22.500

<region>
sample=PIANO73.wav
lokey=71
hikey=77
loop_start=6194
loop_end=7586
tune=1
pitch_keycenter=73
volume=-18.600

<region>
sample=PIANO73.wav
lokey=71
hikey=77
loop_start=6194
loop_end=7586
tune=1
pitch_keycenter=73
volume=-18.600

<region>
sample=PIANO78.wav
lokey=78
hikey=84
loop_start=6447
loop_end=7667
tune=-1
pitch_keycenter=78
volume=-21.200

<region>
sample=PIANO78.wav
lokey=78
hikey=84
loop_start=6447
loop_end=7667
tune=-1
pitch_keycenter=78
volume=-21.200

<region>
sample=PIANO84.wav
lokey=85
hikey=91
loop_start=5976
loop_end=7343
tune=-2
pitch_keycenter=84
volume=-20.800

<region>
sample=PIANO84.wav
lokey=85
hikey=91
loop_start=5976
loop_end=7343
tune=-2
pitch_keycenter=84
volume=-20.800

<region>
sample=PIANO92.wav
lokey=92
hikey=100
loop_start=5392
loop_end=6440
tune=1
pitch_keycenter=92
volume=-20.800

<region>
sample=PIANO92.wav
lokey=92
hikey=100
loop_start=5392
loop_end=6440
tune=1
pitch_keycenter=92
volume=-20.800
